<?xml version="1.0" encoding="utf-8"?>
<!-- Generator: Adobe Illustrator 19.0.0, SVG Export Plug-In . SVG Version: 6.00 Build 0)  -->
<svg version="1.1" id="Layer_1" xmlns="http://www.w3.org/2000/svg" xmlns:xlink="http://www.w3.org/1999/xlink" x="0px" y="0px"
	 viewBox="-231 33 496 496" style="enable-background:new -231 33 496 496;" xml:space="preserve">
<style type="text/css">
	.st0{fill:#FFFFFF;}
</style>
<path class="st0" d="M-55,281c17.6,0,32-14.4,32-32h-16c0,8.8-7.2,16-16,16s-16-7.2-16-16h-16C-87,266.6-72.6,281-55,281z"/>
<path class="st0" d="M-87,201c0,4.4-3.6,8-8,8s-8-3.6-8-8s3.6-8,8-8S-87,196.6-87,201z"/>
<path class="st0" d="M-7,201c0,4.4-3.6,8-8,8s-8-3.6-8-8s3.6-8,8-8S-7,196.6-7,201z"/>
<path class="st0" d="M41,273v63.6L1,323.2v-22.4c13.7-11.3,23.8-26.7,28.7-44.3C49.5,254.2,65,237.4,65,217v-64
	C65,86.8,11.2,33-55,33s-120,53.8-120,120v64c0,20.4,15.5,37.2,35.3,39.5c4.9,17.6,15,33,28.7,44.3v22.4l-81.7,27.2
	c-22.9,7.6-38.3,29-38.3,53.1V481H41v48h224V325.7L212.3,273H41z M217,300.3l20.7,20.7H217V300.3z M7.8,342.4l-12.2,60.9L-42.7,376
	l37.8-37.8L7.8,342.4z M32.7,239.6c0.2-2.2,0.3-4.4,0.3-6.6v-38.5c9.3,3.3,16,12.1,16,22.5C49,227.5,42.1,236.4,32.7,239.6z
	 M-159,217c0-10.4,6.7-19.2,16-22.5V233c0,2.2,0.2,4.4,0.3,6.6C-152.1,236.4-159,227.5-159,217z M-141.5,177.7
	c-6.5,1.1-12.5,3.7-17.5,7.6V153c0-57.3,46.7-104,104-104S49,95.7,49,153v32.2c-5.1-3.8-11-6.5-17.5-7.6C26.4,158.9,9.3,145-11,145
	c-9.5,0-18.8,3.1-26.4,8.8L-55,167l-17.6-13.2c-7.6-5.7-16.9-8.8-26.4-8.8C-119.3,145-136.4,158.9-141.5,177.7z M-127,233v-44
	c0-15.4,12.6-28,28-28c6,0,12,2,16.8,5.6L-55,187l27.2-20.4C-23,163-17,161-11,161c15.4,0,28,12.6,28,28v44c0,39.7-32.3,72-72,72
	S-127,272.7-127,233z M-55,321c14.4,0,28-3.6,40-9.7v14.4l-40,40l-40-40v-14.4C-83,317.4-69.4,321-55,321z M-105.2,338.2l37.8,37.8
	l-38.2,27.3l-12.2-60.9L-105.2,338.2z M-151,465v-48h-16v48h-48v-61.4c0-17.2,11-32.5,27.4-37.9l54.6-18.2l16.6,83.2l61.4-43.9
	l61.4,43.9l16.6-83.2l17.9,6V465H-151z M57,513V289h144v48h48v176H57z"/>
<path class="st0" d="M153,497h80v-80h-80V497z M169,433h48v48h-48V433z"/>
<path class="st0" d="M73,481h64v16H73V481z"/>
<path class="st0" d="M73,449h64v16H73V449z"/>
<path class="st0" d="M73,417h64v16H73V417z"/>
<path class="st0" d="M73,305h16v16H73V305z"/>
<path class="st0" d="M105,305h80v16h-80V305z"/>
<path class="st0" d="M73,337h112v16H73V337z"/>
<path class="st0" d="M217,369h16v16h-16V369z"/>
<path class="st0" d="M73,369h128v16H73V369z"/>
<path class="st0" d="M177,257c48.5,0,88-39.5,88-88c0-19-6.1-36.6-16.4-51l14.3-15.6l-11.8-10.8l-13,14.2
	C222.2,90.5,200.7,81,177,81c-48.5,0-88,39.5-88,88S128.5,257,177,257z M177,97c19.6,0,37.3,7.9,50.3,20.6l-59.1,64.5L134,154.8
	l-10,12.5l45.8,36.7l67.7-73.8c7.3,11.2,11.5,24.6,11.5,38.9c0,39.7-32.3,72-72,72s-72-32.3-72-72S137.3,97,177,97z"/>
</svg>
